# Blender v2.78 (sub 0) OBJ File: ''
# www.blender.org
mtllib cube.mtl
o Cube.001
v 1.000000 -1.000000 -1.000000
v 1.000000 -1.000000 1.000000
v -1.000000 -1.000000 1.000000
v -1.000000 -1.000000 -1.000000
v 1.000000 1.000000 -0.999999
v -1.000000 1.000000 -1.000000
v -1.000000 1.000000 1.000000
v 0.999999 1.000000 1.000001
vt 0.3333 0.0000
vt 0.6667 0.3333
vt 0.3333 0.3333
vt 0.3333 0.0000
vt 0.0000 0.3333
vt 0.0000 0.0000
vt 0.6667 0.6667
vt 0.3333 0.3333
vt 0.6667 0.3333
vt 0.0000 0.6667
vt 0.3333 1.0000
vt 0.0000 1.0000
vt 0.3333 0.6667
vt 0.0000 0.6667
vt 1.0000 0.3333
vt 0.6667 0.0000
vt 1.0000 0.0000
vt 0.6667 0.0000
vt 0.3333 0.3333
vt 0.3333 0.6667
vt 0.3333 0.6667
vn 0.0000 -1.0000 -0.0000
vn -0.0000 1.0000 0.0000
vn 1.0000 0.0000 0.0000
vn -0.0000 -0.0000 1.0000
vn -1.0000 -0.0000 0.0000
vn 0.0000 0.0000 -1.0000
usemtl None
s 1
f 2/1/1 4/2/1 1/3/1
f 5/4/2 7/5/2 8/6/2
f 5/7/3 2/8/3 1/9/3
f 8/10/4 3/11/4 2/12/4
f 7/5/5 4/13/5 3/14/5
f 1/15/6 6/16/6 5/17/6
f 2/1/1 3/18/1 4/2/1
f 5/4/2 6/19/2 7/5/2
f 5/7/3 8/20/3 2/8/3
f 8/10/4 7/21/4 3/11/4
f 7/5/5 6/19/5 4/13/5
f 1/15/6 4/2/6 6/16/6
