# Blender v2.78 (sub 0) OBJ File: ''
# www.blender.org
mtllib icosahedron.mtl
o Object001.001
v 0.850651 -0.000000 0.525731
v 0.850651 0.000000 -0.525731
v 0.525731 0.850651 0.000000
v 0.525731 -0.850651 -0.000000
v -0.850651 0.000000 -0.525731
v -0.850651 -0.000000 0.525731
v -0.525731 0.850651 0.000000
v -0.525731 -0.850651 -0.000000
v 0.000000 0.525731 0.850651
v 0.000000 0.525731 -0.850651
v 0.000000 -0.525731 -0.850651
v 0.000000 -0.525731 0.850651
vt 0.7191 0.0000
vt 0.7757 0.2183
vt 0.5360 0.1133
vt 0.2243 0.8082
vt 0.0000 0.6695
vt 0.2243 0.5307
vt 0.8971 0.4449
vt 0.8971 0.7225
vt 0.6728 0.5837
vt 0.1481 0.3316
vt 0.0000 0.1700
vt 0.1831 0.0567
vt 0.6728 0.5307
vt 0.6728 0.8082
vt 0.4486 0.6695
vt 0.3879 0.2750
vt 0.5710 0.3883
vt 0.7757 0.4449
vt 0.4486 0.5307
vt 0.4486 0.8082
vt 0.2243 0.6695
vt 0.7757 0.1388
vt 1.0000 0.0000
vt 1.0000 0.2775
vt 0.3879 0.0000
vt 0.3879 0.2266
vt 0.8971 1.0000
vt 0.6728 0.8612
vt 0.8971 0.7225
vt 0.3313 0.4449
vt 0.4771 0.4449
vt 0.2528 0.4449
vt 0.4771 0.8940
vt 0.0286 0.4449
vt 0.0286 0.8940
vt 0.2528 0.8940
vn 0.9342 0.3568 0.0000
vn 0.9342 -0.3568 -0.0000
vn -0.9342 0.3568 0.0000
vn -0.9342 -0.3568 -0.0000
vn 0.0000 0.9342 0.3568
vn 0.0000 0.9342 -0.3568
vn 0.3568 0.0000 -0.9342
vn -0.3568 0.0000 -0.9342
vn 0.0000 -0.9342 -0.3568
vn 0.0000 -0.9342 0.3568
vn 0.3568 -0.0000 0.9342
vn -0.3568 -0.0000 0.9342
vn 0.5774 0.5774 -0.5774
vn 0.5774 0.5774 0.5774
vn -0.5774 0.5774 -0.5774
vn -0.5774 0.5774 0.5774
vn 0.5774 -0.5774 -0.5774
vn 0.5774 -0.5774 0.5774
vn -0.5774 -0.5774 -0.5774
vn -0.5774 -0.5774 0.5774
usemtl None
s off
f 1/1/1 2/2/1 3/3/1
f 1/4/2 4/5/2 2/6/2
f 5/7/3 6/8/3 7/9/3
f 6/10/4 5/11/4 8/12/4
f 3/13/5 7/14/5 9/15/5
f 7/16/6 3/3/6 10/17/6
f 11/18/7 10/17/7 2/2/7
f 10/19/8 11/20/8 5/21/8
f 4/22/9 8/23/9 11/24/9
f 8/12/10 4/25/10 12/26/10
f 9/27/11 12/28/11 1/29/11
f 12/26/12 9/30/12 6/10/12
f 3/3/13 2/2/13 10/17/13
f 1/31/14 3/13/14 9/15/14
f 5/21/15 7/32/15 10/19/15
f 7/14/16 6/33/16 9/15/16
f 2/6/17 4/5/17 11/34/17
f 4/5/18 1/4/18 12/35/18
f 5/21/19 11/20/19 8/36/19
f 6/10/20 8/12/20 12/26/20
