# Blender v2.78 (sub 0) OBJ File: ''
# www.blender.org
mtllib platform.mtl
o Plane.002
v -1.000000 -0.000000 1.000000
v -1.000000 0.000000 -1.000000
v 1.000000 0.000000 -1.000000
v 1.000000 -0.000000 1.000000
v 1.000000 0.081440 -1.000000
v 1.000000 0.081440 1.000000
v -1.000000 0.081440 1.000000
v -1.000000 0.081440 -1.000000
v -0.934893 0.081440 0.934893
v 0.934893 0.081440 0.934893
v 0.934893 0.140616 0.934893
v -0.934893 0.140616 0.934893
v 0.934893 0.140616 -0.934893
v -0.934893 0.140616 -0.934893
v 0.934893 0.081440 -0.934893
v -0.934893 0.081440 -0.934893
vt 0.5168 1.0000
vt 0.0000 0.5000
vt 0.5168 0.5000
vt 0.5800 0.4674
vt 0.6010 0.9674
vt 0.5800 0.9674
vt 0.5168 0.4674
vt 0.5379 0.9674
vt 0.5168 0.9674
vt 0.5589 0.4674
vt 0.5800 0.9674
vt 0.5589 0.9674
vt 0.5589 0.9674
vt 0.5379 0.4674
vt 0.5589 0.4674
vt 0.6163 0.4674
vt 0.6316 0.9349
vt 0.6163 0.9349
vt 1.0000 0.0000
vt 0.5168 0.4674
vt 0.5168 0.0000
vt 0.6163 0.9349
vt 0.6010 0.4674
vt 0.6163 0.4674
vt 0.6469 0.4674
vt 0.6622 0.9349
vt 0.6469 0.9349
vt 0.6316 0.4674
vt 0.6469 0.9349
vt 0.6316 0.9349
vt 0.5168 0.5000
vt 0.5000 0.0163
vt 0.5168 0.0000
vt 0.0168 0.0163
vt 0.0000 0.0000
vt 0.0000 0.5000
vt 0.5000 0.4837
vt 0.0168 0.4837
vt 0.0000 1.0000
vt 0.6010 0.4674
vt 0.5379 0.4674
vt 0.5800 0.4674
vt 0.6316 0.4674
vt 1.0000 0.4674
vt 0.6010 0.9349
vt 0.6622 0.4674
vt 0.6469 0.4674
vn 0.0000 -1.0000 -0.0000
vn 1.0000 0.0000 0.0000
vn -1.0000 0.0000 0.0000
vn 0.0000 0.0000 1.0000
vn 0.0000 0.0000 -1.0000
vn 0.0000 1.0000 0.0000
usemtl None
s 1
f 2/1/1 4/2/1 1/3/1
f 3/4/2 6/5/2 4/6/2
f 1/7/3 8/8/3 2/9/3
f 4/10/4 7/11/4 1/12/4
f 2/13/5 5/14/5 3/15/5
f 10/16/4 12/17/4 9/18/4
f 11/19/6 14/20/6 12/21/6
f 16/22/5 13/23/5 15/24/5
f 15/25/2 11/26/2 10/27/2
f 9/28/3 14/29/3 16/30/3
f 8/31/6 15/32/6 5/33/6
f 5/33/6 10/34/6 6/35/6
f 7/36/6 16/37/6 8/31/6
f 6/35/6 9/38/6 7/36/6
f 2/1/1 3/39/1 4/2/1
f 3/4/2 5/40/2 6/5/2
f 1/7/3 7/41/3 8/8/3
f 4/10/4 6/42/4 7/11/4
f 2/13/5 8/8/5 5/14/5
f 10/16/4 11/43/4 12/17/4
f 11/19/6 13/44/6 14/20/6
f 16/22/5 14/45/5 13/23/5
f 15/25/2 13/46/2 11/26/2
f 9/28/3 12/47/3 14/29/3
f 8/31/6 16/37/6 15/32/6
f 5/33/6 15/32/6 10/34/6
f 7/36/6 9/38/6 16/37/6
f 6/35/6 10/34/6 9/38/6
