# Blender v2.78 (sub 0) OBJ File: ''
# www.blender.org
mtllib tetrahedron.mtl
o tetrahedron
v 1.000000 1.000000 1.000000
v 1.000000 2.000000 1.000000
v 2.000000 1.000000 1.000000
v 1.000000 1.000000 2.000000
vt 0.4641 0.2500
vt 0.7321 0.0000
vt 0.7321 0.5000
vt 0.0000 0.7500
vt 0.2679 0.5000
vt 0.2679 1.0000
vt 0.7321 0.2500
vt 1.0000 0.0000
vt 1.0000 0.5000
vt 0.4641 0.0000
vt 0.4641 0.5000
vt 0.0000 0.2500
vn 0.0000 0.0000 -1.0000
vn -1.0000 0.0000 0.0000
vn 0.0000 -1.0000 -0.0000
vn 0.5774 0.5774 0.5774
usemtl None
s off
f 1/1/1 2/2/1 3/3/1
f 1/4/2 4/5/2 2/6/2
f 1/7/3 3/8/3 4/9/3
f 3/10/4 2/11/4 4/12/4
